<svg xmlns="http://www.w3.org/2000/svg" viewBox="0 0 1347.19 1177.95"><defs><style>.cls-1,.cls-10,.cls-2,.cls-3,.cls-4,.cls-5,.cls-6,.cls-7,.cls-8,.cls-9{fill:#fff;}.cls-1,.cls-10,.cls-11,.cls-2,.cls-3,.cls-37,.cls-38,.cls-39,.cls-4,.cls-40,.cls-5,.cls-6,.cls-7,.cls-8,.cls-9{stroke:#231f20;stroke-miterlimit:10;}.cls-2{stroke-width:1.27px;}.cls-3{stroke-width:1.17px;}.cls-4{stroke-width:0.91px;}.cls-5{stroke-width:0.91px;}.cls-6{stroke-width:0.96px;}.cls-7{stroke-width:1.31px;}.cls-8{stroke-width:0.96px;}.cls-9{stroke-width:1px;}.cls-10,.cls-11{stroke-width:1.71px;}.cls-11{fill:none;}.cls-12{font-size:59.47px;}.cls-12,.cls-13,.cls-17,.cls-25,.cls-29,.cls-35{fill:#231f20;font-family:MyriadPro-Regular, Myriad Pro;}.cls-13{font-size:37.51px;}.cls-14{letter-spacing:-0.01em;}.cls-15{letter-spacing:-0.01em;}.cls-16{letter-spacing:0em;}.cls-17{font-size:22.88px;}.cls-18{letter-spacing:0em;}.cls-19{letter-spacing:-0.01em;}.cls-20{letter-spacing:-0.01em;}.cls-21{letter-spacing:0em;}.cls-22{letter-spacing:-0.01em;}.cls-23{letter-spacing:0em;}.cls-24{letter-spacing:0em;}.cls-25{font-size:33.69px;}.cls-26{letter-spacing:0em;}.cls-27{letter-spacing:0em;}.cls-28{letter-spacing:-0.01em;}.cls-29{font-size:30.98px;}.cls-30{letter-spacing:0em;}.cls-31{letter-spacing:-0.01em;}.cls-32{letter-spacing:0.01em;}.cls-33{letter-spacing:0.01em;}.cls-34{letter-spacing:-0.01em;}.cls-35{font-size:55.98px;}.cls-36{letter-spacing:0.01em;}.cls-37{fill:#e0dede;}.cls-38{fill:#ccc8c8;}.cls-39{fill:#bfbaba;}.cls-40{fill:#938d8d;}</style></defs><title>Asset 21</title><g id="Layer_2" data-name="Layer 2"><g id="Layer_1-2" data-name="Layer 1"><rect class="cls-1" x="0.5" y="0.86" width="1085.87" height="101.53"/><polygon class="cls-1" points="1346.54 0.86 1346.54 1177.37 1015.65 1177.37 1015.65 494.12 812.42 494.12 812.42 292.95 0.5 292.95 0.5 226.48 1086.37 226.48 1086.37 1162.05 1210.46 1162.05 1210.46 0.86 1346.54 0.86"/><rect class="cls-1" x="1086.37" y="1162.05" width="124.09" height="15.32"/><rect class="cls-1" x="1015.65" y="840.35" width="70.72" height="137.11"/><rect class="cls-1" x="1015.65" y="595.24" width="70.72" height="137.11"/><rect class="cls-2" x="1210.46" y="692.26" width="136.08" height="262.98"/><rect class="cls-3" x="1210.46" y="955.24" width="136.08" height="222.13"/><rect class="cls-4" x="1210.46" y="0.86" width="136.08" height="133.79"/><rect class="cls-5" x="1210.46" y="134.64" width="136.08" height="133.19"/><rect class="cls-6" x="1210.46" y="265.18" width="136.08" height="149.29"/><rect class="cls-7" x="1210.46" y="414.47" width="136.08" height="277.79"/><rect class="cls-1" x="1086.37" y="1162.05" width="124.09" height="15.32"/><polygon class="cls-8" points="1210.46 0.86 1210.46 1162.05 1086.37 1162.05 1086.37 226.48 0.5 226.48 0.5 102.39 1086.37 102.39 1086.37 0.86 1210.46 0.86"/><rect class="cls-9" x="813.44" y="494.12" width="202.21" height="58.23"/><rect class="cls-10" x="241.52" y="0.86" width="571.91" height="101.53"/><line class="cls-11" x1="527.48" y1="0.86" x2="527.48" y2="102.39"/><text class="cls-12" transform="translate(1236.27 92.17)">211</text><text class="cls-12" transform="translate(1236.28 236.05)">213</text><text class="cls-12" transform="translate(1236.27 360.49)">215</text><text class="cls-13" transform="translate(1278.5 452.39) rotate(90)"><tspan class="cls-14">C</tspan><tspan x="21.34" y="0">ompu</tspan><tspan class="cls-15" x="115.22" y="0">t</tspan><tspan class="cls-16" x="127.41" y="0">er Lab</tspan></text><text class="cls-17" transform="translate(1040.06 706.55) rotate(-90)"><tspan class="cls-18">B</tspan><tspan class="cls-19" x="12.49" y="0">o</tspan><tspan class="cls-20" x="24.89" y="0">y</tspan><tspan x="35.53" y="0">s </tspan><tspan class="cls-21" x="0" y="27.45">w</tspan><tspan x="16.75" y="27.45">ash</tspan><tspan class="cls-22" x="49.53" y="27.45">r</tspan><tspan x="56.78" y="27.45">oom</tspan></text><text class="cls-17" transform="translate(866.54 520.23)">Gi<tspan class="cls-23" x="20.13" y="0">r</tspan><tspan class="cls-24" x="27.7" y="0">ls </tspan><tspan class="cls-21" x="0" y="27.45">w</tspan><tspan x="16.75" y="27.45">ash</tspan><tspan class="cls-22" x="49.53" y="27.45">r</tspan><tspan x="56.78" y="27.45">oom</tspan></text><text class="cls-25" transform="translate(1269.67 706.55) rotate(90)"><tspan class="cls-26">D</tspan><tspan class="cls-27" x="22.57" y="0">ean </tspan><tspan class="cls-28" x="81.52" y="0">A</tspan><tspan x="101.73" y="0">cademics</tspan></text><text class="cls-29" transform="translate(1278.5 977.46) rotate(90)"><tspan class="cls-30">D</tspan><tspan x="20.76" y="0">ean </tspan><tspan class="cls-30" x="74.97" y="0">R</tspan><tspan x="91.76" y="0">esea</tspan><tspan class="cls-31" x="150" y="0">r</tspan><tspan x="159.82" y="0">ch</tspan></text><text class="cls-17" transform="translate(1099.55 1162.04)"><tspan class="cls-32">M</tspan><tspan x="18.53" y="0">ain </tspan><tspan class="cls-33" x="52.45" y="0">G</tspan><tspan class="cls-21" x="67.42" y="0">a</tspan><tspan class="cls-34" x="78.35" y="0">t</tspan><tspan x="85.78" y="0">e</tspan></text><text class="cls-35" transform="translate(1063.1 955.24) rotate(-90)">Li<tspan class="cls-36" x="39.52" y="0">f</tspan><tspan x="56.48" y="0">t</tspan></text><text class="cls-12" transform="translate(914.54 70.22)">207</text><text class="cls-12" transform="translate(626.54 70.22)">205</text><text class="cls-12" transform="translate(358.46 70.22)">203</text><text class="cls-12" transform="translate(79.65 70.22)">201</text><rect class="cls-1" x="731.73" y="226.48" width="134.81" height="178.81"/><rect class="cls-1" x="731.73" y="226.48" width="67.4" height="178.81"/><rect class="cls-1" x="799.14" y="226.48" width="67.4" height="19.15"/><rect class="cls-1" x="799.14" y="245.62" width="67.4" height="19.15"/><rect class="cls-1" x="799.14" y="264.77" width="67.4" height="19.15"/><rect class="cls-1" x="799.14" y="283.91" width="67.4" height="19.15"/><rect class="cls-1" x="799.14" y="303.06" width="67.4" height="19.15"/><rect class="cls-1" x="799.14" y="322.2" width="67.4" height="19.15"/><rect class="cls-1" x="799.14" y="341.35" width="67.4" height="19.15"/><rect class="cls-1" x="799.14" y="360.49" width="67.4" height="19.15"/><rect class="cls-1" x="799.14" y="379.64" width="67.4" height="19.15"/><rect class="cls-37" x="731.73" y="283.91" width="67.4" height="19.15"/><rect class="cls-37" x="731.73" y="303.06" width="67.4" height="19.15"/><rect class="cls-37" x="731.73" y="322.2" width="67.4" height="19.15"/><rect class="cls-37" x="731.73" y="341.35" width="67.4" height="19.15"/><rect class="cls-37" x="731.73" y="360.49" width="67.4" height="19.15"/><rect class="cls-37" x="731.73" y="379.64" width="67.4" height="19.15"/><rect class="cls-38" x="731.73" y="264.77" width="67.4" height="19.15"/><rect class="cls-39" x="731.73" y="245.62" width="67.4" height="19.15"/><rect class="cls-40" x="731.73" y="226.48" width="67.4" height="19.15"/><rect class="cls-1" x="0.5" y="226.48" width="134.81" height="178.81"/><rect class="cls-1" x="0.5" y="226.48" width="67.4" height="178.81"/><rect class="cls-1" x="67.9" y="226.48" width="67.4" height="19.15"/><rect class="cls-1" x="67.9" y="245.62" width="67.4" height="19.15"/><rect class="cls-1" x="67.9" y="264.77" width="67.4" height="19.15"/><rect class="cls-1" x="67.9" y="283.91" width="67.4" height="19.15"/><rect class="cls-1" x="67.9" y="303.06" width="67.4" height="19.15"/><rect class="cls-1" x="67.9" y="322.2" width="67.4" height="19.15"/><rect class="cls-1" x="67.9" y="341.35" width="67.4" height="19.15"/><rect class="cls-1" x="67.9" y="360.49" width="67.4" height="19.15"/><rect class="cls-1" x="67.9" y="379.64" width="67.4" height="19.15"/><rect class="cls-37" x="0.5" y="283.91" width="67.4" height="19.15"/><rect class="cls-37" x="0.5" y="303.06" width="67.4" height="19.15"/><rect class="cls-37" x="0.5" y="322.2" width="67.4" height="19.15"/><rect class="cls-37" x="0.5" y="341.35" width="67.4" height="19.15"/><rect class="cls-37" x="0.5" y="360.49" width="67.4" height="19.15"/><rect class="cls-37" x="0.5" y="379.64" width="67.4" height="19.15"/><rect class="cls-38" x="0.5" y="264.77" width="67.4" height="19.15"/><rect class="cls-39" x="0.5" y="245.62" width="67.4" height="19.15"/><rect class="cls-40" x="0.5" y="226.48" width="67.4" height="19.15"/><rect class="cls-1" x="858.84" y="1005.24" width="134.81" height="178.81" transform="translate(2020.89 168.39) rotate(90)"/><rect class="cls-1" x="892.55" y="971.54" width="67.4" height="178.81" transform="translate(1987.19 134.69) rotate(90)"/><rect class="cls-1" x="972.38" y="1118.77" width="67.4" height="19.15" transform="translate(2134.42 122.27) rotate(90)"/><rect class="cls-1" x="953.23" y="1118.77" width="67.4" height="19.15" transform="translate(2115.28 141.41) rotate(90)"/><rect class="cls-1" x="934.09" y="1118.77" width="67.4" height="19.15" transform="translate(2096.13 160.56) rotate(90)"/><rect class="cls-1" x="914.94" y="1118.77" width="67.4" height="19.15" transform="translate(2076.99 179.7) rotate(90)"/><rect class="cls-1" x="895.8" y="1118.77" width="67.4" height="19.15" transform="translate(2057.84 198.85) rotate(90)"/><rect class="cls-1" x="876.65" y="1118.77" width="67.4" height="19.15" transform="translate(2038.7 217.99) rotate(90)"/><rect class="cls-1" x="857.51" y="1118.77" width="67.4" height="19.15" transform="translate(2019.55 237.14) rotate(90)"/><rect class="cls-1" x="838.36" y="1118.77" width="67.4" height="19.15" transform="translate(2000.41 256.28) rotate(90)"/><rect class="cls-1" x="819.22" y="1118.77" width="67.4" height="19.15" transform="translate(1981.26 275.43) rotate(90)"/><rect class="cls-37" x="914.94" y="1051.37" width="67.4" height="19.15" transform="translate(2009.58 112.3) rotate(90)"/><rect class="cls-37" x="895.8" y="1051.37" width="67.4" height="19.15" transform="translate(1990.44 131.44) rotate(90)"/><rect class="cls-37" x="876.65" y="1051.37" width="67.4" height="19.15" transform="translate(1971.29 150.59) rotate(90)"/><rect class="cls-37" x="857.51" y="1051.37" width="67.4" height="19.15" transform="translate(1952.15 169.73) rotate(90)"/><rect class="cls-37" x="838.36" y="1051.37" width="67.4" height="19.15" transform="translate(1933 188.88) rotate(90)"/><rect class="cls-37" x="819.22" y="1051.37" width="67.4" height="19.15" transform="translate(1913.86 208.02) rotate(90)"/><rect class="cls-38" x="934.09" y="1051.37" width="67.4" height="19.15" transform="translate(2028.73 93.15) rotate(90)"/><rect class="cls-39" x="953.23" y="1051.37" width="67.4" height="19.15" transform="translate(2047.87 74.01) rotate(90)"/><rect class="cls-40" x="972.38" y="1051.37" width="67.4" height="19.15" transform="translate(2067.02 54.86) rotate(90)"/></g></g></svg>